:FULLY-SPECIFIED
:FORCE-ALL-JOINTS-BE-3DOF
:DEGREES
713
root 5.53607 21.5024 7.37116 -41.0057 -88.6886 57.1565
lfemur -34.9329 -12.5452 9.8591
ltibia 72.7993 -0 0
lfoot 6.24135 -7.93458 0.00224243
ltoes 30.7445 -0 0
rfemur -32.329 -0.811911 -0.288372
rtibia 85.9465 -0 0
rfoot 19.7055 -19.9842 -0.0757078
rtoes 39.6273 -0 0
lowerback 6.24529 -0.844015 -1.86649
upperback -1.23685 -1.36595 -1.61062
thorax -4.78741 -0.653929 -0.484138
lowerneck -6.8064 -6.17319 -2.20604
upperneck -0.1483 -8.21067 4.885
head 1.42494 -4.03966 1.62493
lclavicle 5.25534e-15 2.67264e-14 -2.12895e-30
lhumerus 1.73366 -20.338 15.4305
lradius 46.2141 -0 0
lwrist 23.595 0 0
lhand -21.6102 -3.10483 0.00101405
lfingers 7.12502 -0 0
lthumb 4.78506 26.8204 0.000899636
rclavicle 5.25534e-15 2.67264e-14 -2.12895e-30
rhumerus -12.5098 -3.45244 -26.2356
rradius 99.3096 -0 0
rwrist -9.60501 0 0
rhand -28.2321 -35.6915 0.0410211
rfingers 7.12502 -0 0
rthumb -1.60995 -65.6536 0.0389265
714
root 5.51402 21.5242 7.58268 -111.913 -88.5851 128.184
lfemur -34.2506 -13.5367 9.1729
ltibia 68.9335 -0 0
lfoot 6.8882 -8.57388 0.00401745
ltoes 30.2928 -0 0
rfemur -33.1482 -1.04791 -1.07492
rtibia 91.6291 -0 0
rfoot 20.6454 -20.3817 -0.029985
rtoes 41.4004 -0 0
lowerback 6.13956 -0.718166 -1.83657
upperback -1.27437 -1.19216 -1.58936
thorax -4.76613 -0.568536 -0.497342
lowerneck -6.83804 -6.31638 -2.31948
upperneck -0.283452 -8.39055 4.90017
head 1.39974 -4.13163 1.64246
lclavicle 9.38113e-15 3.08319e-14 -1.13801e-30
lhumerus 0.0229334 -20.2737 16.0349
lradius 45.3502 -0 0
lwrist 22.9757 0 0
lhand -21.9398 -3.2444 0.000487015
lfingers 7.12502 -0 0
lthumb 4.46686 26.6882 0.000433238
rclavicle 9.38113e-15 3.08319e-14 -1.13801e-30
rhumerus -11.7373 -2.60012 -26.9761
rradius 99.2689 -0 0
rwrist -9.72868 0 0
rhand -27.3138 -34.7523 0.0199455
rfingers 7.12502 -0 0
rthumb -0.723036 -64.725 0.0188833
715
root 5.49097 21.5295 7.79601 -140.605 -87.2103 157.04
lfemur -33.5571 -14.4896 8.51967
ltibia 65.1241 0 0
lfoot 7.43438 -9.44215 0
ltoes 29.8338 0 0
rfemur -33.8349 -1.58686 -1.91882
rtibia 97.0122 0 0
rfoot 21.3635 -20.6634 0
rtoes 42.9309 0 0
lowerback 5.99658 -0.553404 -1.77502
upperback -1.3238 -0.963173 -1.56773
thorax -4.7355 -0.456483 -0.530585
lowerneck -6.88249 -6.45178 -2.43303
upperneck -0.433777 -8.5592 4.89979
head 1.37063 -4.21848 1.65523
lclavicle 1.2921e-14 3.18055e-14 0
lhumerus -1.77093 -20.2407 16.623
lradius 44.6521 0 0
lwrist 22.5382 0 0
lhand -22.2191 -3.35407 0
lfingers 7.12502 0 0
lthumb 4.19717 26.5843 0
rclavicle 1.2921e-14 3.18055e-14 0
rhumerus -10.8552 -1.84384 -27.5558
rradius 99.2563 0 0
rwrist -9.86977 0 0
rhand -26.5547 -33.9151 0
rfingers 7.12502 0 0
rthumb 0.0100137 -783.895 0
716
root 5.46664 21.5159 8.01137 -149.926 -85.5525 166.571
lfemur -32.8785 -15.4051 7.91452
ltibia 61.3364 -0 0
lfoot 7.85747 -10.6567 -0.0079801
ltoes 29.3255 -0 0
rfemur -34.3396 -2.41588 -2.84041
rtibia 102.177 -0 0
rfoot 21.8527 -20.8981 -0.00184692
rtoes 44.2441 -0 0
lowerback 5.80587 -0.352609 -1.682
upperback -1.39071 -0.682762 -1.54575
thorax -4.69645 -0.319718 -0.586602
lowerneck -6.94196 -6.58702 -2.55511
upperneck -0.605042 -8.7261 4.88285
head 1.33701 -4.3049 1.66403
lclavicle 1.68593e-14 2.87669e-14 1.26206e-30
lhumerus -3.62799 -20.1914 17.1807
lradius 44.1667 -0 0
lwrist 22.3434 0 0
lhand -22.4971 -3.44073 0.00013866
lfingers 7.12502 -0 0
lthumb 3.92875 26.5028 0.00014582
rclavicle 1.68593e-14 2.87669e-14 1.26206e-30
rhumerus -9.93311 -1.17365 -27.9174
rradius 99.3156 -0 0
rwrist -10.0548 0 0
rhand -25.9016 -33.1179 -0.00929588
rfingers 7.12502 -0 0
rthumb 0.640777 -63.1007 -0.0086591
